<svg width="19" height="20" viewBox="0 0 19 20" fill="none" xmlns="http://www.w3.org/2000/svg">
<g clip-path="url(#clip0)">
<path d="M13.9337 0H4.90804C2.08574 0 0.0377197 2.12741 0.0377197 5.05827V14.4305C0.0377197 17.3613 2.08574 19.4887 4.90804 19.4887H13.9337C16.756 19.4887 18.8046 17.3613 18.8046 14.4305V5.05827C18.8046 2.12741 16.756 0 13.9337 0ZM17.5939 14.4305C17.5939 16.6685 16.0889 18.2314 13.9337 18.2314H4.90804C2.75348 18.2314 1.24849 16.6685 1.24849 14.4305V5.05827C1.24849 2.82021 2.75348 1.25734 4.90804 1.25734H13.9337C16.0889 1.25734 17.5939 2.82021 17.5939 5.05827V14.4305Z" fill="white"/>
<path d="M8.9157 10.3699C8.67355 10.0392 8.32666 9.80535 7.87686 9.6683C8.22617 9.4885 8.48648 9.25275 8.65902 8.96105C8.83155 8.66934 8.91812 8.35815 8.91812 8.02747C8.91812 7.67227 8.82066 7.33217 8.62633 7.00651C8.432 6.68086 8.162 6.44008 7.81874 6.28355C7.47549 6.12701 7.01782 6.04779 6.44876 6.04779H3.65491V13.7829H6.49477C6.96939 13.7829 7.36955 13.7402 7.69646 13.6541C8.02336 13.5673 8.29518 13.4403 8.51191 13.2712C8.72864 13.1027 8.91086 12.8626 9.05797 12.5514C9.20507 12.2396 9.27893 11.9032 9.27893 11.5411C9.27893 11.0903 9.15786 10.7006 8.9157 10.3699ZM4.64047 9.29801V6.96125H6.12912C6.66428 6.96125 7.04204 6.99708 7.2624 7.06875C7.48276 7.14105 7.65166 7.27433 7.77031 7.46984C7.88897 7.66599 7.9483 7.89168 7.9483 8.14818C7.9483 8.41913 7.88473 8.6442 7.7576 8.82337C7.63047 9.00254 7.44159 9.13141 7.19096 9.20874C7.00147 9.26846 6.68789 9.29864 6.2514 9.29864H4.64047V9.29801ZM8.11115 12.1924C8.01247 12.381 7.88715 12.5237 7.7352 12.623C7.58264 12.7211 7.39316 12.7915 7.16614 12.8336C7.0378 12.8582 6.8138 12.8714 6.49537 12.8714H4.64047V12.8707V10.2115H6.36279C6.83741 10.2115 7.20004 10.2542 7.45249 10.341C7.70493 10.4265 7.90229 10.5767 8.04455 10.7892C8.18682 11.0017 8.25825 11.2525 8.25825 11.5411C8.25825 11.7875 8.20922 12.0038 8.11115 12.1924Z" fill="white"/>
<path d="M15.1881 10.9728C15.1881 10.0474 14.9592 9.33007 14.5022 8.81959C14.0445 8.30786 13.4555 8.05325 12.7338 8.05325C11.9886 8.05325 11.3832 8.31352 10.9153 8.83405C10.4479 9.35522 10.2142 10.0864 10.2142 11.0294C10.2142 11.9403 10.4455 12.6482 10.9074 13.1536C11.3705 13.6578 11.9959 13.9099 12.7859 13.9099C13.4119 13.9099 13.9265 13.7515 14.3302 13.4353C14.7334 13.1184 15.0089 12.6733 15.1578 12.1L14.2128 11.9799C14.0742 12.3804 13.8865 12.6727 13.648 12.8556C13.4113 13.0386 13.1255 13.1297 12.7901 13.1297C12.3397 13.1297 11.9638 12.9663 11.6617 12.6394C11.3608 12.3118 11.1937 11.8403 11.1592 11.2255H15.1832C15.1869 11.113 15.1881 11.0287 15.1881 10.9728ZM11.2101 10.4434V10.4428C11.2398 9.95371 11.399 9.56394 11.6841 9.27161C11.9711 8.9799 12.3246 8.83342 12.7435 8.83342C13.2079 8.83342 13.5856 9.017 13.8768 9.38288C14.0657 9.61863 14.1813 9.97194 14.2225 10.4434H11.2101Z" fill="white"/>
<path d="M14.2297 6.73933H11.1738L11.1659 7.52013H14.2352L14.2297 6.73933Z" fill="white"/>
</g>
<defs>
<clipPath id="clip0">
<rect width="18.7669" height="19.4887" fill="white" transform="translate(0.0377197)"/>
</clipPath>
</defs>
</svg>
