<svg width="54" height="54" viewBox="0 0 54 54" fill="none" xmlns="http://www.w3.org/2000/svg">
<g clip-path="url(#clip0)">
<path d="M49.1686 43.2867L46.9888 42.5298C48.2091 41.5633 48.9939 40.0703 48.9939 38.3964V36.7987C48.9939 33.8917 46.6287 31.5265 43.7217 31.5265C40.8148 31.5265 38.4495 33.8917 38.4495 36.7987V38.3964C38.4495 40.0703 39.2348 41.5633 40.4551 42.5298L38.2749 43.2867C36.8766 43.7724 35.7012 44.6631 34.8595 45.799H28.9705V43.4749C28.9705 40.4159 27.0288 37.6865 24.1392 36.6833L21.9589 35.9265C23.1792 34.96 23.9645 33.4669 23.9645 31.793V30.1954C23.9645 27.288 21.5993 24.9232 18.6923 24.9232C15.7853 24.9232 13.4201 27.2884 13.4201 30.1954V31.793C13.4201 33.4669 14.2053 34.96 15.4252 35.9265L13.2454 36.6833C10.3557 37.6865 8.41402 40.4159 8.41402 43.4749V45.799H0.798843C0.357605 45.799 0 46.1566 0 46.5978V53.2011C0 53.6424 0.357605 54 0.798843 54H34.0297C34.0656 54 34.101 53.9967 34.136 53.9922C34.1711 53.9967 34.2065 54 34.2427 54H53.2012C53.6424 54 54 53.6424 54 53.2011V50.0783C54 47.0197 52.0587 44.2903 49.1686 43.2867ZM40.0472 36.7987C40.0472 34.7725 41.6956 33.1242 43.7217 33.1242C45.7479 33.1242 47.3963 34.7725 47.3963 36.7987V38.3964C47.3963 40.4225 45.7479 42.0709 43.7217 42.0709C41.6956 42.0709 40.0472 40.4225 40.0472 38.3964V36.7987ZM15.0178 30.1954C15.0178 28.1692 16.6661 26.5208 18.6923 26.5208C20.7184 26.5208 22.3668 28.1692 22.3668 30.1954V31.793C22.3668 33.8192 20.7184 35.4676 18.6923 35.4676C16.6661 35.4676 15.0178 33.8192 15.0178 31.793V30.1954ZM20.3682 37.0652L21.1444 37.3347L18.6923 41.5893L16.2401 37.3347L17.0163 37.0652H20.3682ZM10.0117 43.4749C10.0117 41.0957 11.522 38.9727 13.7694 38.1924L14.7038 37.8682L18.0001 43.5882C18.1427 43.8358 18.4068 43.9883 18.6923 43.9883C18.9778 43.9883 19.2419 43.8358 19.3844 43.5882L22.6807 37.8682L23.6151 38.1924C25.8625 38.9727 27.3724 41.0957 27.3724 43.4749V45.799H10.0117V43.4749ZM1.59769 47.3967H33.9642C33.6272 48.2326 33.4439 49.1398 33.4439 50.0783V52.4023H1.59769V47.3967ZM52.4023 52.4023H35.0416V50.0783C35.0416 47.6991 36.5515 45.5765 38.7989 44.7958L42.0458 43.6686H45.3977L48.6446 44.7958C50.8924 45.5765 52.4023 47.6991 52.4023 50.0783V52.4023Z" fill="white"/>
<path d="M48.9408 5.75134H40.8263C40.3851 5.75134 40.0275 6.10936 40.0275 6.55019C40.0275 6.99142 40.3851 7.34903 40.8263 7.34903H48.9408C50.8495 7.34903 52.4023 8.90181 52.4023 10.811V21.8876C52.4023 23.7964 50.8495 25.3492 48.9408 25.3492H37.9704C37.5292 25.3492 37.1716 25.7068 37.1716 26.148V29.5453L33.2099 25.5832C33.0599 25.4332 32.8568 25.3492 32.6451 25.3492H26.148C24.2393 25.3492 22.6861 23.7964 22.6861 21.8876V10.8105C22.6861 8.90181 24.2389 7.34903 26.148 7.34903H37.0916C37.5329 7.34903 37.8905 6.99142 37.8905 6.55019C37.8905 6.10895 37.5329 5.75134 37.0916 5.75134H32.9112V5.0592C32.9112 2.26964 30.6416 0 27.852 0H5.0592C2.26964 0 0 2.26964 0 5.0592V6.82539C0 7.26663 0.357605 7.62424 0.798843 7.62424C1.24008 7.62424 1.59769 7.26663 1.59769 6.82539V5.0592C1.59769 3.15047 3.15047 1.59769 5.0592 1.59769H27.852C29.7607 1.59769 31.3135 3.15047 31.3135 5.0592V5.75134H26.148C23.3584 5.75134 21.0888 8.02098 21.0888 10.8105V19.5974H12.7279C12.2867 19.5974 11.9291 19.955 11.9291 20.3963V23.7935L7.96742 19.8314C7.81746 19.6815 7.61435 19.5974 7.40259 19.5974H5.0592C3.15047 19.5974 1.59769 18.0446 1.59769 16.1359V10.5399C1.59769 10.0986 1.24008 9.74103 0.798843 9.74103C0.357605 9.74103 0 10.0986 0 10.5399V16.1359C0 18.9259 2.26964 21.1951 5.0592 21.1951H7.07135L12.1631 26.2868C12.3159 26.4397 12.5203 26.5209 12.7279 26.5204C12.8309 26.5204 12.9348 26.5007 13.0336 26.4599C13.3319 26.3363 13.5268 26.045 13.5268 25.722V21.1951H21.0888V21.8876C21.0888 24.6772 23.3584 26.9464 26.148 26.9464H32.3142L37.4056 32.0382C37.5584 32.191 37.7628 32.2722 37.9704 32.2722C38.0734 32.2722 38.1772 32.2524 38.2761 32.2112C38.5744 32.0876 38.7692 31.7964 38.7692 31.4734V26.9464H48.9408C51.7304 26.9464 54 24.6772 54 21.8876V10.8105C54 8.02098 51.7304 5.75134 48.9408 5.75134Z" fill="white"/>
</g>
<defs>
<clipPath id="clip0">
<rect width="54" height="54" fill="white"/>
</clipPath>
</defs>
</svg>
