<svg width="21" height="21" viewBox="0 0 21 21" fill="none" xmlns="http://www.w3.org/2000/svg">
<path d="M3.27632 21H9.86843V13.8158H7.50001V11.4474H9.86843V8.48684C9.86843 6.85439 11.1965 5.52631 12.829 5.52631H15.7895V7.89473H13.4211C12.7681 7.89473 12.2369 8.42593 12.2369 9.07895V11.4474H15.6826L15.2879 13.8158H12.2369V21H17.5658C19.1983 21 20.5263 19.6719 20.5263 18.0395V3.74999C20.5263 2.11754 19.1983 0.789467 17.5658 0.789467H3.27632C1.64387 0.789467 0.315796 2.11754 0.315796 3.74999V18.0395C0.315796 19.6719 1.64387 21 3.27632 21ZM1.50001 3.74999C1.50001 2.77055 2.29688 1.97368 3.27632 1.97368H17.5658C18.5452 1.97368 19.3421 2.77055 19.3421 3.74999V18.0395C19.3421 19.0189 18.5452 19.8158 17.5658 19.8158H13.4211V15H16.2911L17.0806 10.2632H13.4211V9.07895H16.9737V4.3421H12.829C10.5435 4.3421 8.68422 6.20137 8.68422 8.48684V10.2632H6.3158V15H8.68422V19.8158H3.27632C2.29688 19.8158 1.50001 19.0189 1.50001 18.0395V3.74999Z" fill="white"/>
</svg>
