<svg width="54" height="54" viewBox="0 0 54 54" fill="none" xmlns="http://www.w3.org/2000/svg">
<path fill-rule="evenodd" clip-rule="evenodd" d="M49.738 21.7978H13.755L48.317 11.7857C48.5856 11.7079 48.8122 11.5262 48.9474 11.2814C49.0825 11.0363 49.1146 10.7479 49.0368 10.4793L47.2281 4.23564C46.5055 1.74188 44.1836 0 41.5814 0C41.0331 0 40.4868 0.0778656 39.957 0.231125L7.5068 9.63144C6.00593 10.0661 4.76214 11.0639 4.00367 12.4404C3.24562 13.8168 3.06764 15.4017 3.50229 16.9022L5.2693 23.0021V48.1304C5.2693 51.367 7.90231 54 11.1385 54H23.812C24.3946 54 24.8667 53.5279 24.8667 52.9453C24.8667 52.3628 24.3946 51.8906 23.812 51.8906H11.1389C9.06535 51.8906 7.37867 50.2039 7.37867 48.1304V33.7776H12.7819H12.7844H12.7864H21.0459H21.0484H21.0509H29.3104H29.3129H29.3154H37.5749H37.5773H37.5794H48.6833V48.1304C48.6833 50.2039 46.9966 51.8906 44.9231 51.8906H32.2495C31.6674 51.8906 31.1948 52.3628 31.1948 52.9453C31.1948 53.5279 31.6674 54 32.2495 54H44.9231C48.1596 54 50.7927 51.367 50.7927 48.1304V22.8525C50.7927 22.27 50.3205 21.7978 49.738 21.7978ZM31.1405 31.6682L35.6216 23.9072H41.45L36.9692 31.6682H31.1405ZM22.876 31.6682L27.3572 23.9072H33.1856L28.7048 31.6682H22.876ZM14.6119 31.6682L19.0927 23.9072H24.9215L20.4403 31.6682H14.6119ZM18.5332 18.0146L11.0293 10.8073L16.6517 9.17867C16.6912 9.23634 16.7374 9.29073 16.7901 9.3414L24.2941 16.5487L18.6717 18.1773C18.6321 18.1196 18.5856 18.0648 18.5332 18.0146ZM32.666 4.74239L40.17 11.9497L34.5476 13.5783C34.508 13.5206 34.4619 13.4658 34.4092 13.4155L26.9052 6.20824L32.5276 4.57965C32.5672 4.63733 32.6133 4.69171 32.666 4.74239ZM24.7279 7.0421L32.2318 14.249L26.6094 15.878C26.5699 15.8203 26.5237 15.7655 26.471 15.7153L18.9671 8.50795L24.5894 6.87936C24.6294 6.93663 24.6756 6.99142 24.7279 7.0421ZM40.5441 2.25728C40.8827 2.15923 41.2317 2.10938 41.5814 2.10938C43.2504 2.10938 44.7389 3.22504 45.202 4.82272L46.7173 10.0529L42.4858 11.2786C42.4458 11.2209 42.3997 11.1665 42.3469 11.1158L34.8434 3.90894L40.5441 2.25728ZM5.85144 13.458C6.33758 12.5751 7.13395 11.9357 8.09388 11.6576L8.71351 11.478C8.75348 11.5356 8.79962 11.5904 8.85194 11.6407L16.3559 18.848L7.04373 21.5457L5.52844 16.3155C5.25035 15.356 5.36529 14.3413 5.85144 13.458ZM7.37867 23.9072H16.657L12.1763 31.6682H7.37867V23.9072ZM39.4049 31.6682L43.8857 23.9072H48.6833V31.6682H39.4049Z" fill="white"/>
<path fill-rule="evenodd" clip-rule="evenodd" d="M35.3238 42.7268C35.3238 42.3498 35.1227 42.0017 34.7964 41.8134L25.5304 36.4638C25.2041 36.2755 24.802 36.2755 24.4757 36.4638C24.1494 36.6521 23.9484 37.0002 23.9484 37.3772V48.0765C23.9484 48.453 24.1494 48.8012 24.4757 48.9894C24.6389 49.0838 24.821 49.1312 25.0031 49.1312C25.1852 49.1312 25.3673 49.0838 25.5304 48.9894L34.7964 43.6402C35.1227 43.4519 35.3238 43.1038 35.3238 42.7268ZM26.0578 46.2497V39.2039L32.1597 42.7268L26.0578 46.2497Z" fill="white"/>
<path fill-rule="evenodd" clip-rule="evenodd" d="M28.0308 51.8906C27.4499 51.8906 26.9761 52.3644 26.9761 52.9453C26.9761 53.5262 27.4499 54 28.0308 54C28.6121 54 29.0855 53.5262 29.0855 52.9453C29.0855 52.3644 28.6121 51.8906 28.0308 51.8906Z" fill="white"/>
</svg>
