<svg width="21" height="21" viewBox="0 0 21 21" fill="none" xmlns="http://www.w3.org/2000/svg">
<g clip-path="url(#clip0)">
<path d="M14.6555 0.533852H6.18664C2.94944 0.533852 0.315796 3.1675 0.315796 6.4047V14.8735C0.315796 18.1107 2.94944 20.7444 6.18664 20.7444H14.6555C17.8927 20.7444 20.5263 18.1107 20.5263 14.8736V6.4047C20.5263 3.1675 17.8927 0.533852 14.6555 0.533852ZM18.9474 14.8735C18.9474 17.2401 17.0221 19.1654 14.6555 19.1654H6.18664C3.82007 19.1654 1.89474 17.2401 1.89474 14.8736V6.4047C1.89474 4.03813 3.82007 2.1128 6.18664 2.1128H14.6555C17.0221 2.1128 18.9474 4.03813 18.9474 6.4047V14.8735Z" fill="white"/>
<path d="M10.4211 5.19175C7.41735 5.19175 4.97369 7.63541 4.97369 10.6391C4.97369 13.6428 7.41735 16.0865 10.4211 16.0865C13.4248 16.0865 15.8684 13.6428 15.8684 10.6391C15.8684 7.63541 13.4248 5.19175 10.4211 5.19175ZM10.4211 14.5075C8.28802 14.5075 6.55264 12.7722 6.55264 10.6391C6.55264 8.50608 8.28802 6.7707 10.4211 6.7707C12.5541 6.7707 14.2895 8.50608 14.2895 10.6391C14.2895 12.7722 12.5541 14.5075 10.4211 14.5075Z" fill="white"/>
<path d="M15.9474 5.90228C16.3834 5.90228 16.7368 5.54882 16.7368 5.1128C16.7368 4.67679 16.3834 4.32333 15.9474 4.32333C15.5114 4.32333 15.1579 4.67679 15.1579 5.1128C15.1579 5.54882 15.5114 5.90228 15.9474 5.90228Z" fill="white"/>
</g>
<defs>
<clipPath id="clip0">
<rect width="20.2105" height="20.2105" fill="white" transform="translate(0.315796 0.533852)"/>
</clipPath>
</defs>
</svg>
