<svg width="54" height="54" viewBox="0 0 54 54" fill="none" xmlns="http://www.w3.org/2000/svg">
<g clip-path="url(#clip0)">
<path d="M47.6264 11.5076H45.1179C44.681 11.5076 44.3269 11.8616 44.3269 12.2986C44.3269 12.7355 44.681 13.0896 45.1179 13.0896H47.6264C48.0634 13.0896 48.4174 12.7355 48.4174 12.2986C48.4174 11.8616 48.0633 11.5076 47.6264 11.5076Z" fill="white"/>
<path d="M33.5513 15.3235C29.1281 15.3235 25.5297 18.9235 25.5297 23.3484C25.5297 27.7716 29.128 31.3702 33.5513 31.3702C37.9761 31.3702 41.576 27.7716 41.576 23.3484C41.576 18.9235 37.9761 15.3235 33.5513 15.3235ZM33.5513 29.7883C30.0005 29.7883 27.1117 26.8994 27.1117 23.3485C27.1117 19.796 30.0005 16.9056 33.5513 16.9056C37.1037 16.9056 39.994 19.7959 39.994 23.3485C39.994 26.8993 37.1038 29.7883 33.5513 29.7883Z" fill="white"/>
<path d="M51.038 7.28397H41.4281L40.4979 4.71306C40.3479 4.29899 39.8914 3.03906 38.6019 3.03906H26.2964C25.0067 3.03906 24.5503 4.29899 24.4002 4.71338L23.4701 7.28397H15.6456V5.37171C15.6456 4.33032 14.7983 3.48309 13.7569 3.48309H10.2328C9.19308 3.48309 8.34722 4.33032 8.34722 5.37171V7.31814C6.92687 7.53604 5.83559 8.76728 5.83559 10.249V26.4289L2.25176 27.124C0.745139 27.4176 -0.241732 28.8814 0.0515764 30.3862L3.60324 48.7107C3.86248 50.0365 5.03213 50.9609 6.33836 50.9609C6.51217 50.9609 6.68851 50.9445 6.86539 50.9105L14.5916 49.4115C15.0204 49.3283 15.3007 48.9131 15.2175 48.4843C15.1342 48.0554 14.7189 47.7749 14.2903 47.8584L6.56543 49.3571C5.91448 49.4827 5.28262 49.056 5.15605 48.4084L1.60439 30.0843C1.47783 29.4349 1.90403 28.8036 2.55361 28.6768L21.818 24.94C22.1304 24.8802 22.4494 24.9462 22.7166 25.1266C22.9836 25.3071 23.1638 25.5785 23.224 25.8922L26.7786 44.2131C26.9052 44.8625 26.479 45.4938 25.8294 45.6206L18.1001 47.1196C17.6713 47.2028 17.3911 47.618 17.4742 48.0468C17.5574 48.4756 17.9725 48.7555 18.4013 48.6729L26.1313 47.1735C27.6379 46.8799 28.6247 45.4161 28.3314 43.9113L27.3702 38.9571H36.1995C36.6365 38.9571 36.9905 38.603 36.9905 38.1661C36.9905 37.7291 36.6365 37.375 36.1995 37.375H27.0633L26.2298 33.0789C28.3231 34.6538 30.8884 35.5271 33.5511 35.5271C38.8298 35.5271 43.3343 32.1524 45.0214 27.448H52.418V35.9919C52.418 36.7546 51.799 37.375 51.038 37.375H40.0735C39.6365 37.375 39.2825 37.7291 39.2825 38.1661C39.2825 38.603 39.6365 38.9571 40.0735 38.9571H51.038C52.6712 38.9571 54 37.6269 54 35.9919V10.249C54 8.61403 52.6712 7.28397 51.038 7.28397ZM25.8877 5.25201C26.0393 4.8334 26.1768 4.6212 26.2964 4.6212H38.6019C38.7507 4.6212 38.9063 4.96429 39.0104 5.25169L39.7458 7.28397H25.1524L25.8877 5.25201ZM21.3732 23.3484C21.3732 23.3706 21.3743 23.3926 21.3744 23.4147L15.6456 24.526V20.8312H21.6353C21.4639 21.6437 21.3732 22.4856 21.3732 23.3484ZM9.92915 5.37171C9.92915 5.2055 10.0682 5.06512 10.2327 5.06512H13.7568C13.9259 5.06512 14.0634 5.20265 14.0634 5.37171V7.28397H9.92915V5.37171ZM7.41762 10.249C7.41762 9.48647 8.03672 8.866 8.79757 8.866H9.13813H14.0634V24.8328L11.3856 25.3522V16.4309C11.3856 15.6711 10.7675 15.053 10.0077 15.053H7.41762V10.249ZM7.41762 16.635H9.80353V25.6592L7.41762 26.122V16.635ZM33.5513 33.9449C30.573 33.9449 27.7343 32.6896 25.7286 30.4945L24.7775 25.5923C24.6376 24.8642 24.2203 24.2333 23.6024 23.8158C23.3993 23.6786 23.1827 23.5706 22.9576 23.4917C22.957 23.4439 22.9551 23.3962 22.9551 23.3484C22.9551 17.5039 27.7085 12.749 33.5512 12.749C39.3956 12.749 44.1504 17.504 44.1504 23.3484C44.1505 29.1913 39.3957 33.9449 33.5513 33.9449ZM52.418 25.8658H45.4701C45.6416 25.0532 45.7324 24.2113 45.7324 23.3484C45.7324 22.4856 45.6416 21.6437 45.4702 20.8312H52.418V25.8658ZM52.418 19.2492H45.0221C43.3352 14.543 38.8304 11.167 33.5513 11.167C28.2735 11.167 23.7698 14.5431 22.0834 19.2492H15.6454V8.866H24.0249H40.873H51.0379C51.7989 8.866 52.4179 9.48647 52.4179 10.249V19.2492H52.418Z" fill="white"/>
<path d="M23.9628 43.0925C24.1484 42.8152 24.2159 42.4905 24.1532 42.1803L21.4648 28.671C21.3219 27.9645 20.5844 27.5328 19.7848 27.6864L5.11123 30.5323C4.3084 30.6875 3.78602 31.3663 3.92323 32.0846L6.61279 45.5844C6.67248 45.8968 6.85705 46.1716 7.13275 46.3585C7.37396 46.522 7.67053 46.608 7.97766 46.608C8.0826 46.608 8.18881 46.598 8.29449 46.5775L22.965 43.7315C23.3809 43.6513 23.7446 43.4183 23.9628 43.0925ZM7.03951 39.589L5.53216 32.0621L19.9694 29.262L20.8454 33.6636L18.9943 34.0231C15.4638 34.7077 14.2918 35.7651 13.1583 36.7874C12.0605 37.7776 10.9265 38.7996 7.03951 39.589ZM8.11129 45.0016L7.74278 43.1006L7.35012 41.1398C11.6674 40.2611 13.0191 39.0435 14.2179 37.9622C15.2798 37.0044 16.1968 36.1771 19.2957 35.5763L21.1541 35.2152L22.5444 42.2017L8.11129 45.0016Z" fill="white"/>
</g>
<defs>
<clipPath id="clip0">
<rect width="54" height="54" fill="white"/>
</clipPath>
</defs>
</svg>
